<svg xmlns="http://www.w3.org/2000/svg" viewBox="0 0 1800 2400" font-family="Inter, system-ui, sans-serif">
  <style>
    .frame { fill: #FFFFFF; stroke: #1F2937; stroke-width: 2; }
    .device { fill: #F9FAFB; stroke: #9CA3AF; stroke-width: 1; }
    .header { fill: #1A237E; }
    .input { fill: #FFFFFF; stroke: #D1D5DB; stroke-width: 1; }
    .input-error { fill: #FFFFFF; stroke: #EF4444; stroke-width: 2; }
    .input-filled { fill: #FFFFFF; stroke: #D1D5DB; stroke-width: 1; }
    .annotation { fill: #DC2626; font-style: italic; font-size: 11px; }
    .anno-line { stroke: #DC2626; stroke-width: 1; stroke-dasharray: 4,2; fill: none; }
    .label-bg { fill: #FEF2F2; stroke: #DC2626; stroke-width: 1; }
    .frame-title { fill: #111827; font-weight: 700; font-size: 18px; }
    .state-label { fill: #4B5563; font-weight: 600; font-size: 13px; }
  </style>

  <rect x="0" y="0" width="1800" height="60" fill="#111827"/>
  <text x="30" y="38" fill="#FFFFFF" font-size="20" font-weight="700">Spec 4 — Modern Bot Detection + Form-State Preservation</text>
  <text x="30" y="55" fill="#9CA3AF" font-size="12">Two surfaces: Login + Passenger form · States: Default (no challenge) / Borderline / Failed challenge / Field validation failure</text>

  <!-- ============================================================== -->
  <!-- LOGIN — DEFAULT (no challenge — 95% of users)                   -->
  <!-- ============================================================== -->
  <g transform="translate(40, 100)">
    <text class="frame-title" x="0" y="20">Login · Default (no challenge)</text>
    <text class="state-label" x="0" y="40">95% of users see this — invisible bot detection passes</text>

    <rect class="device" x="0" y="60" width="390" height="700" rx="20"/>
    <rect class="frame" x="0" y="60" width="390" height="700" rx="20"/>

    <rect class="header" x="0" y="60" width="390" height="56" rx="20"/>
    <rect class="header" x="0" y="100" width="390" height="16"/>
    <text x="155" y="93" font-size="14" font-weight="600" fill="#FFFFFF">Sign in to IRCTC</text>

    <!-- form -->
    <text x="20" y="170" font-size="11" fill="#6B7280">User ID</text>
    <rect class="input" x="20" y="180" width="350" height="40" rx="6"/>
    <text x="32" y="205" font-size="13">ramesh_kumar</text>

    <text x="20" y="245" font-size="11" fill="#6B7280">Password</text>
    <rect class="input" x="20" y="255" width="350" height="40" rx="6"/>
    <text x="32" y="280" font-size="13">●●●●●●●●●●●●</text>
    <text x="345" y="280" font-size="14" fill="#6B7280" text-anchor="end">👁</text>

    <text x="345" y="320" font-size="11" fill="#1A237E" text-anchor="end" font-weight="600">Forgot password?</text>

    <!-- NO VISIBLE CAPTCHA -->
    <rect x="20" y="350" width="350" height="48" rx="8" fill="#1A237E"/>
    <text x="195" y="380" text-anchor="middle" font-size="14" fill="#FFFFFF" font-weight="700">Sign In</text>

    <!-- protected by note -->
    <text x="195" y="425" text-anchor="middle" font-size="10" fill="#9CA3AF">🛡 Protected by Turnstile</text>

    <!-- create account etc -->
    <text x="195" y="500" text-anchor="middle" font-size="12" fill="#374151">New to IRCTC?
    </text>
    <text x="195" y="520" text-anchor="middle" font-size="13" fill="#1A237E" font-weight="700">Create account</text>

    <!-- annotation -->
    <line class="anno-line" x1="195" y1="425" x2="-30" y2="425"/>
    <rect class="label-bg" x="-220" y="405" width="240" height="40" rx="4"/>
    <text class="annotation" x="-210" y="422">Invisible bot detection runs in</text>
    <text class="annotation" x="-210" y="435">background. 95% of users — no</text>
    <text class="annotation" x="-210" y="448">challenge ever shown.</text>
  </g>

  <!-- ============================================================== -->
  <!-- LOGIN — BORDERLINE (Turnstile tickbox)                          -->
  <!-- ============================================================== -->
  <g transform="translate(540, 100)">
    <text class="frame-title" x="0" y="20">Login · Borderline (challenge shown)</text>
    <text class="state-label" x="0" y="40">5% of users — single-tap challenge</text>

    <rect class="device" x="0" y="60" width="390" height="700" rx="20"/>
    <rect class="frame" x="0" y="60" width="390" height="700" rx="20"/>

    <rect class="header" x="0" y="60" width="390" height="56" rx="20"/>
    <rect class="header" x="0" y="100" width="390" height="16"/>
    <text x="155" y="93" font-size="14" font-weight="600" fill="#FFFFFF">Sign in to IRCTC</text>

    <text x="20" y="170" font-size="11" fill="#6B7280">User ID</text>
    <rect class="input" x="20" y="180" width="350" height="40" rx="6"/>
    <text x="32" y="205" font-size="13">ramesh_kumar</text>

    <text x="20" y="245" font-size="11" fill="#6B7280">Password</text>
    <rect class="input" x="20" y="255" width="350" height="40" rx="6"/>
    <text x="32" y="280" font-size="13">●●●●●●●●●●●●</text>

    <!-- TURNSTILE BOX -->
    <rect x="20" y="320" width="350" height="60" rx="8" fill="#F9FAFB" stroke="#D1D5DB"/>
    <rect x="32" y="338" width="22" height="22" rx="3" fill="#FFFFFF" stroke="#1A237E" stroke-width="2"/>
    <text x="68" y="354" font-size="13">I'm not a robot</text>
    <text x="68" y="370" font-size="10" fill="#9CA3AF">Privacy · Terms</text>
    <text x="345" y="358" font-size="14" fill="#6B7280" text-anchor="end">🛡</text>

    <!-- Audio alternative link -->
    <text x="20" y="404" font-size="11" fill="#1A237E" font-weight="600" text-decoration="underline">🔊 Use audio challenge instead</text>

    <rect x="20" y="430" width="350" height="48" rx="8" fill="#1A237E"/>
    <text x="195" y="460" text-anchor="middle" font-size="14" fill="#FFFFFF" font-weight="700">Sign In</text>

    <line class="anno-line" x1="195" y1="350" x2="450" y2="350"/>
    <rect class="label-bg" x="450" y="330" width="220" height="50" rx="4"/>
    <text class="annotation" x="460" y="347">Single-tap challenge.</text>
    <text class="annotation" x="460" y="360">Triggered by anomaly signals</text>
    <text class="annotation" x="460" y="373">(new device, unusual IP).</text>

    <line class="anno-line" x1="195" y1="404" x2="-30" y2="404"/>
    <rect class="label-bg" x="-220" y="384" width="240" height="40" rx="4"/>
    <text class="annotation" x="-210" y="401">WCAG 2.2 AA — audio alternative</text>
    <text class="annotation" x="-210" y="414">always available on every visible</text>
    <text class="annotation" x="-210" y="427">challenge.</text>
  </g>

  <!-- ============================================================== -->
  <!-- LOGIN — FAILED CHALLENGE                                        -->
  <!-- ============================================================== -->
  <g transform="translate(1040, 100)">
    <text class="frame-title" x="0" y="20">Login · Challenge failed</text>
    <text class="state-label" x="0" y="40">CRITICAL — User ID and password remain populated</text>

    <rect class="device" x="0" y="60" width="390" height="700" rx="20"/>
    <rect class="frame" x="0" y="60" width="390" height="700" rx="20"/>

    <rect class="header" x="0" y="60" width="390" height="56" rx="20"/>
    <rect class="header" x="0" y="100" width="390" height="16"/>
    <text x="155" y="93" font-size="14" font-weight="600" fill="#FFFFFF">Sign in to IRCTC</text>

    <!-- FIELDS PRESERVED -->
    <text x="20" y="170" font-size="11" fill="#6B7280">User ID</text>
    <rect class="input-filled" x="20" y="180" width="350" height="40" rx="6"/>
    <text x="32" y="205" font-size="13" fill="#111827">ramesh_kumar</text>
    <text x="345" y="205" font-size="13" fill="#10B981" text-anchor="end">✓</text>

    <text x="20" y="245" font-size="11" fill="#6B7280">Password</text>
    <rect class="input-filled" x="20" y="255" width="350" height="40" rx="6"/>
    <text x="32" y="280" font-size="13">●●●●●●●●●●●●</text>
    <text x="345" y="280" font-size="13" fill="#10B981" text-anchor="end">✓</text>

    <!-- ERROR ON CHALLENGE ONLY -->
    <rect x="20" y="320" width="350" height="60" rx="8" fill="#FFFFFF" stroke="#EF4444" stroke-width="2"/>
    <rect x="32" y="338" width="22" height="22" rx="3" fill="#FFFFFF" stroke="#EF4444" stroke-width="2"/>
    <text x="68" y="354" font-size="13">I'm not a robot</text>
    <text x="68" y="370" font-size="10" fill="#EF4444">Challenge failed — try again</text>

    <text x="20" y="404" font-size="11" fill="#1A237E" font-weight="600" text-decoration="underline">🔊 Use audio challenge instead</text>
    <text x="20" y="424" font-size="11" fill="#1A237E" font-weight="600" text-decoration="underline">📞 I need help — contact support</text>

    <rect x="20" y="450" width="350" height="48" rx="8" fill="#1A237E"/>
    <text x="195" y="480" text-anchor="middle" font-size="14" fill="#FFFFFF" font-weight="700">Try again</text>

    <line class="anno-line" x1="200" y1="200" x2="450" y2="200"/>
    <rect class="label-bg" x="450" y="180" width="240" height="40" rx="4"/>
    <text class="annotation" x="460" y="197">CRITICAL: User ID and password</text>
    <text class="annotation" x="460" y="210">stay populated. No re-typing.</text>
    <text class="annotation" x="460" y="223">Validation error scoped to challenge only.</text>

    <line class="anno-line" x1="195" y1="370" x2="-30" y2="370"/>
    <rect class="label-bg" x="-220" y="360" width="240" height="36" rx="4"/>
    <text class="annotation" x="-210" y="375">Inline error — does NOT trigger</text>
    <text class="annotation" x="-210" y="388">a full page reload or form wipe.</text>
  </g>

  <!-- ============================================================== -->
  <!-- BOOKING FORM — DEFAULT (full form, no challenge)                -->
  <!-- ============================================================== -->
  <g transform="translate(40, 900)">
    <text class="frame-title" x="0" y="20">Booking form · Default</text>
    <text class="state-label" x="0" y="40">All 4 passengers entered — no captcha visible</text>

    <rect class="device" x="0" y="60" width="390" height="900" rx="20"/>
    <rect class="frame" x="0" y="60" width="390" height="900" rx="20"/>

    <rect class="header" x="0" y="60" width="390" height="56" rx="20"/>
    <rect class="header" x="0" y="100" width="390" height="16"/>
    <text x="155" y="93" font-size="14" font-weight="600" fill="#FFFFFF">Passenger Details</text>

    <!-- 4 passengers compact -->
    <text x="20" y="150" font-size="11" font-weight="700">PASSENGER 1</text>
    <rect class="input-filled" x="20" y="160" width="350" height="32" rx="4"/>
    <text x="32" y="180" font-size="11">Ramesh Kumar · 67M · Lower</text>

    <text x="20" y="210" font-size="11" font-weight="700">PASSENGER 2</text>
    <rect class="input-filled" x="20" y="220" width="350" height="32" rx="4"/>
    <text x="32" y="240" font-size="11">Sita Devi · 62F · Lower</text>

    <text x="20" y="270" font-size="11" font-weight="700">PASSENGER 3</text>
    <rect class="input-filled" x="20" y="280" width="350" height="32" rx="4"/>
    <text x="32" y="300" font-size="11">Anjali Kumar · 34F · Middle</text>

    <text x="20" y="330" font-size="11" font-weight="700">PASSENGER 4</text>
    <rect class="input-filled" x="20" y="340" width="350" height="32" rx="4"/>
    <text x="32" y="360" font-size="11">Vikram Kumar · 38M · No Pref</text>

    <text x="20" y="390" font-size="11" font-weight="700">CONTACT</text>
    <rect class="input-filled" x="20" y="400" width="350" height="32" rx="4"/>
    <text x="32" y="420" font-size="11">+91 98765 43210 · ramesh@example.com</text>

    <text x="20" y="450" font-size="11" font-weight="700">ID DETAILS</text>
    <rect class="input-filled" x="20" y="460" width="350" height="32" rx="4"/>
    <text x="32" y="480" font-size="11">Aadhaar · XXXX-XXXX-1234</text>

    <!-- subtle protected note -->
    <text x="195" y="540" text-anchor="middle" font-size="10" fill="#9CA3AF">🛡 Protected by Turnstile · No captcha required</text>

    <rect x="20" y="570" width="350" height="48" rx="8" fill="#1A237E"/>
    <text x="195" y="600" text-anchor="middle" font-size="14" fill="#FFFFFF" font-weight="700">Verify and continue →</text>

    <line class="anno-line" x1="195" y1="540" x2="-30" y2="540"/>
    <rect class="label-bg" x="-220" y="520" width="240" height="40" rx="4"/>
    <text class="annotation" x="-210" y="537">Same invisible bot check.</text>
    <text class="annotation" x="-210" y="550">Most users — submit, proceed,</text>
    <text class="annotation" x="-210" y="563">no challenge ever appears.</text>
  </g>

  <!-- ============================================================== -->
  <!-- BOOKING FORM — CHALLENGE MODAL (form preserved beneath)         -->
  <!-- ============================================================== -->
  <g transform="translate(540, 900)">
    <text class="frame-title" x="0" y="20">Booking form · Challenge modal</text>
    <text class="state-label" x="0" y="40">Form visible but dimmed — state preserved beneath</text>

    <rect class="device" x="0" y="60" width="390" height="900" rx="20"/>
    <rect class="frame" x="0" y="60" width="390" height="900" rx="20"/>

    <rect class="header" x="0" y="60" width="390" height="56" rx="20"/>
    <rect class="header" x="0" y="100" width="390" height="16"/>
    <text x="155" y="93" font-size="14" font-weight="600" fill="#FFFFFF">Passenger Details</text>

    <!-- form (dimmed) -->
    <g opacity="0.3">
      <text x="20" y="150" font-size="11" font-weight="700">PASSENGER 1</text>
      <rect class="input-filled" x="20" y="160" width="350" height="32" rx="4"/>
      <text x="32" y="180" font-size="11">Ramesh Kumar · 67M · Lower</text>

      <text x="20" y="210" font-size="11" font-weight="700">PASSENGER 2</text>
      <rect class="input-filled" x="20" y="220" width="350" height="32" rx="4"/>
      <text x="32" y="240" font-size="11">Sita Devi · 62F · Lower</text>

      <text x="20" y="270" font-size="11" font-weight="700">PASSENGER 3</text>
      <rect class="input-filled" x="20" y="280" width="350" height="32" rx="4"/>
      <text x="32" y="300" font-size="11">Anjali Kumar · 34F · Middle</text>

      <text x="20" y="330" font-size="11" font-weight="700">PASSENGER 4</text>
      <rect class="input-filled" x="20" y="340" width="350" height="32" rx="4"/>
      <text x="32" y="360" font-size="11">Vikram Kumar · 38M · No Pref</text>
    </g>

    <!-- modal overlay -->
    <rect x="20" y="380" width="350" height="240" rx="12" fill="#FFFFFF" stroke="#1F2937" stroke-width="1"/>
    <text x="195" y="415" text-anchor="middle" font-size="14" font-weight="700">Quick check</text>
    <text x="195" y="438" text-anchor="middle" font-size="12" fill="#6B7280">Please confirm you're a person</text>

    <rect x="40" y="460" width="310" height="60" rx="8" fill="#F9FAFB" stroke="#D1D5DB"/>
    <rect x="56" y="478" width="22" height="22" rx="3" fill="#FFFFFF" stroke="#1A237E" stroke-width="2"/>
    <text x="92" y="494" font-size="13">I'm not a robot</text>
    <text x="92" y="510" font-size="10" fill="#9CA3AF">Privacy · Terms</text>

    <text x="195" y="548" text-anchor="middle" font-size="11" fill="#1A237E" font-weight="600" text-decoration="underline">🔊 Audio challenge</text>

    <rect x="40" y="570" width="310" height="40" rx="6" fill="#1A237E"/>
    <text x="195" y="595" text-anchor="middle" font-size="13" fill="#FFFFFF" font-weight="700">Continue</text>

    <line class="anno-line" x1="195" y1="650" x2="450" y2="650"/>
    <rect class="label-bg" x="450" y="630" width="240" height="60" rx="4"/>
    <text class="annotation" x="460" y="647">Modal — does NOT replace the page.</text>
    <text class="annotation" x="460" y="660">Form state remains in SPA memory.</text>
    <text class="annotation" x="460" y="673">Cancel → return to form intact.</text>
    <text class="annotation" x="460" y="686">Pass → submit with form intact.</text>
  </g>

  <!-- ============================================================== -->
  <!-- BOOKING FORM — FIELD VALIDATION FAILURE (e.g. invalid PAN)      -->
  <!-- ============================================================== -->
  <g transform="translate(1040, 900)">
    <text class="frame-title" x="0" y="20">Booking form · Field validation error</text>
    <text class="state-label" x="0" y="40">Inline error · Other fields preserved</text>

    <rect class="device" x="0" y="60" width="390" height="900" rx="20"/>
    <rect class="frame" x="0" y="60" width="390" height="900" rx="20"/>

    <rect class="header" x="0" y="60" width="390" height="56" rx="20"/>
    <rect class="header" x="0" y="100" width="390" height="16"/>
    <text x="155" y="93" font-size="14" font-weight="600" fill="#FFFFFF">Passenger Details</text>

    <!-- summary banner -->
    <rect x="16" y="130" width="358" height="40" rx="6" fill="#FEF2F2" stroke="#EF4444"/>
    <text x="32" y="155" font-size="12" fill="#991B1B" font-weight="700">⚠ Please fix 1 error below</text>

    <!-- 4 passengers preserved -->
    <text x="20" y="195" font-size="11" font-weight="700">PASSENGER 1 ✓</text>
    <rect class="input-filled" x="20" y="205" width="350" height="32" rx="4"/>
    <text x="32" y="225" font-size="11">Ramesh Kumar · 67M · Lower</text>

    <text x="20" y="255" font-size="11" font-weight="700">PASSENGER 2 ✓</text>
    <rect class="input-filled" x="20" y="265" width="350" height="32" rx="4"/>
    <text x="32" y="285" font-size="11">Sita Devi · 62F · Lower</text>

    <text x="20" y="315" font-size="11" font-weight="700">PASSENGER 3 ✓</text>
    <rect class="input-filled" x="20" y="325" width="350" height="32" rx="4"/>
    <text x="32" y="345" font-size="11">Anjali Kumar · 34F · Middle</text>

    <text x="20" y="375" font-size="11" font-weight="700">PASSENGER 4 ✓</text>
    <rect class="input-filled" x="20" y="385" width="350" height="32" rx="4"/>
    <text x="32" y="405" font-size="11">Vikram Kumar · 38M · No Pref</text>

    <text x="20" y="435" font-size="11" font-weight="700">CONTACT ✓</text>
    <rect class="input-filled" x="20" y="445" width="350" height="32" rx="4"/>
    <text x="32" y="465" font-size="11">+91 98765 43210 · ramesh@example.com</text>

    <!-- ERROR FIELD -->
    <text x="20" y="495" font-size="11" font-weight="700" fill="#EF4444">ID DETAILS — invalid format</text>
    <rect class="input-error" x="20" y="505" width="350" height="40" rx="6"/>
    <text x="32" y="529" font-size="13" fill="#111827">PAN: ABCD123E</text>
    <text x="345" y="529" font-size="14" fill="#EF4444" text-anchor="end">⚠</text>
    <text x="20" y="562" font-size="11" fill="#EF4444">PAN must be 10 characters: 5 letters + 4 digits + 1 letter</text>

    <rect x="20" y="600" width="350" height="48" rx="8" fill="#1A237E"/>
    <text x="195" y="630" text-anchor="middle" font-size="14" fill="#FFFFFF" font-weight="700">Verify and continue →</text>

    <line class="anno-line" x1="195" y1="525" x2="-30" y2="525"/>
    <rect class="label-bg" x="-220" y="505" width="240" height="40" rx="4"/>
    <text class="annotation" x="-210" y="522">SAME PATTERN: inline error,</text>
    <text class="annotation" x="-210" y="535">scoped to failing field. All other</text>
    <text class="annotation" x="-210" y="548">25 fields fully preserved.</text>
  </g>

  <!-- ============================================================== -->
  <!-- BEFORE/AFTER                                                    -->
  <!-- ============================================================== -->
  <g transform="translate(40, 1900)">
    <text class="frame-title" x="0" y="20" fill="#DC2626">BEFORE / AFTER comparison</text>

    <!-- BEFORE -->
    <rect class="device" x="0" y="50" width="280" height="500" rx="12"/>
    <rect class="frame" x="0" y="50" width="280" height="500" rx="12"/>
    <rect x="0" y="50" width="280" height="40" rx="12" fill="#1A237E"/>
    <rect x="0" y="70" width="280" height="20" fill="#1A237E"/>
    <text x="140" y="79" font-size="13" fill="#FFFFFF" text-anchor="middle">Booking</text>

    <!-- empty form -->
    <text x="20" y="125" font-size="10" fill="#6B7280">Passenger 1</text>
    <rect x="20" y="135" width="240" height="22" rx="3" fill="#FFFFFF" stroke="#D1D5DB"/>
    <text x="20" y="180" font-size="10" fill="#6B7280">Passenger 2</text>
    <rect x="20" y="190" width="240" height="22" rx="3" fill="#FFFFFF" stroke="#D1D5DB"/>
    <text x="20" y="235" font-size="10" fill="#6B7280">Passenger 3</text>
    <rect x="20" y="245" width="240" height="22" rx="3" fill="#FFFFFF" stroke="#D1D5DB"/>
    <text x="20" y="290" font-size="10" fill="#6B7280">Passenger 4</text>
    <rect x="20" y="300" width="240" height="22" rx="3" fill="#FFFFFF" stroke="#D1D5DB"/>

    <!-- distorted captcha -->
    <rect x="20" y="345" width="120" height="38" fill="#F3F4F6" stroke="#9CA3AF"/>
    <text x="80" y="370" text-anchor="middle" font-size="14" font-style="italic" fill="#374151" font-weight="700" text-decoration="line-through" transform="rotate(-3 80 370)">wQ08lI</text>
    <rect x="148" y="345" width="112" height="38" rx="3" fill="#FFFFFF" stroke="#EF4444"/>

    <text x="20" y="410" font-size="11" fill="#EF4444" font-weight="700">Captcha incorrect — please retry</text>

    <text x="140" y="455" text-anchor="middle" font-size="13" fill="#DC2626" font-weight="700">All 25 fields wiped</text>
    <text x="140" y="473" text-anchor="middle" font-size="11" fill="#6B7280">User must re-type everything</text>
    <text x="140" y="497" text-anchor="middle" font-size="14" font-weight="700" fill="#DC2626">BEFORE</text>

    <text x="320" y="290" font-size="48" fill="#10B981">→</text>

    <!-- AFTER -->
    <rect class="device" x="370" y="50" width="280" height="500" rx="12"/>
    <rect class="frame" x="370" y="50" width="280" height="500" rx="12"/>
    <rect x="370" y="50" width="280" height="40" rx="12" fill="#1A237E"/>
    <rect x="370" y="70" width="280" height="20" fill="#1A237E"/>
    <text x="510" y="79" font-size="13" fill="#FFFFFF" text-anchor="middle">Booking</text>

    <!-- preserved form with success ticks -->
    <text x="390" y="125" font-size="10" fill="#10B981" font-weight="700">Passenger 1 ✓</text>
    <rect x="390" y="135" width="240" height="22" rx="3" fill="#F0FDF4" stroke="#10B981"/>
    <text x="402" y="150" font-size="9" fill="#374151">Ramesh · 67M · Lower</text>

    <text x="390" y="180" font-size="10" fill="#10B981" font-weight="700">Passenger 2 ✓</text>
    <rect x="390" y="190" width="240" height="22" rx="3" fill="#F0FDF4" stroke="#10B981"/>
    <text x="402" y="205" font-size="9" fill="#374151">Sita · 62F · Lower</text>

    <text x="390" y="235" font-size="10" fill="#10B981" font-weight="700">Passenger 3 ✓</text>
    <rect x="390" y="245" width="240" height="22" rx="3" fill="#F0FDF4" stroke="#10B981"/>
    <text x="402" y="260" font-size="9" fill="#374151">Anjali · 34F · Middle</text>

    <text x="390" y="290" font-size="10" fill="#10B981" font-weight="700">Passenger 4 ✓</text>
    <rect x="390" y="300" width="240" height="22" rx="3" fill="#F0FDF4" stroke="#10B981"/>
    <text x="402" y="315" font-size="9" fill="#374151">Vikram · 38M · No Pref</text>

    <!-- modal challenge tickbox -->
    <rect x="390" y="345" width="240" height="50" rx="6" fill="#FFFFFF" stroke="#1A237E" stroke-width="2"/>
    <rect x="404" y="358" width="18" height="18" rx="3" fill="#FFFFFF" stroke="#1A237E"/>
    <text x="432" y="373" font-size="11">I'm not a robot</text>
    <text x="432" y="386" font-size="9" fill="#9CA3AF">Privacy · Terms</text>

    <text x="510" y="455" text-anchor="middle" font-size="13" fill="#10B981" font-weight="700">All fields preserved</text>
    <text x="510" y="473" text-anchor="middle" font-size="11" fill="#6B7280">Single tap, fields stay populated</text>
    <text x="510" y="497" text-anchor="middle" font-size="14" font-weight="700" fill="#10B981">AFTER</text>
  </g>
</svg>
